The Skeleton Key (2005)       

 
Verenigde Staten
Drama / Thriller
104 minuten

geregisseerd door Iain Softley
met Kate Hudson, Gena Rowlands en Peter Sarsgaard

Verpleegster Caroline (Kate Hudson) verzorgt een oude vrouw en haar zeer zieke man. Ze wonen in een oud herenhuis en ze houden er vreemde gewoonten op na. Wanneer Caroline een loper krijgt van de vrouw des huizes, komt ze er al snel achter dat 1 deur in het huis niet te openen is...


English

Storyline
A young woman helping care for an invalid in New Orleans finds herself caught in the middle of morbid going-ons centered around a group of Hoodoo practitioners. (Hoodoo is not Voodoo, it's of a different culture. Voodoo is Haitian while Hoodoo is an old African American magic that just like Voodoo only works if you believe in it.) 


SoLuTioN : 1920x816 
FRaMeRaTe : 23.976 FPS 
LaNGuaGe ......... English
CoDeC ............ AC-3 640 kbps
SuBTiTLes : Italian,Dutch,Finnish,German,Portuguese,Danish,English,French,Norwegian,Spanish,Swedish
FoRMaT : SRT 
CoNTaiNer : MKV
Spotinformatie 
Categorie : Beeld 
Formaat : x264HD 
Bron : Retail
Audio : English
Genre : Horror
Thriller

Format                           : Matroska
File size                        : 7.95 GiB
Duration                         : 1h 43mn
Overall bit rate                 : 11.0 Mbps
Encoded date                     : UTC 2009-02-02 07:22:32
Writing application              : mkvmerge v2.4.2 ('Oh My God') built on Jan 18 2009 17:30:28
Writing library                  : libebml v0.7.7 + libmatroska v0.8.1

Video
ID                               : 1
Format                           : AVC
Format/Info                      : Advanced Video Codec
Format profile                   : High@L4.1
Format settings, CABAC           : Yes
Format settings, ReFrames        : 5 frames
Muxing mode                      : Container profile=Unknown@4.1
Codec ID                         : V_MPEG4/ISO/AVC
Duration                         : 1h 43mn
Bit rate                         : 10.1 Mbps
Nominal bit rate                 : 10.3 Mbps
Width                            : 1 920 pixels
Height                           : 816 pixels
Display aspect ratio             : 2.35
Frame rate                       : 23.976 fps
Resolution                       : 24 bits
Colorimetry                      : 4:2:0
Scan type                        : Progressive
Bits/(Pixel*Frame)               : 0.269
Stream size                      : 7.32 GiB (92%)
Writing library                  : x264 core 66 r1093M 1df50b9
Encoding settings                : cabac=1 / ref=5 / deblock=1:0:0 / analyse=0x3:0x133 / me=umh / subme=7 / psy_rd=1.0:0.0 / mixed_ref=1 / me_range=16 / chroma_me=1 / trellis=1 / 8x8dct=1 / cqm=0 / deadzone=21,11 / chroma_qp_offset=-2 / threads=3 / nr=0 / decimate=1 / mbaff=0 / bframes=3 / b_pyramid=1 / b_adapt=1 / b_bias=0 / direct=1 / wpredb=1 / keyint=250 / keyint_min=25 / scenecut=40(pre) / rc=2pass / bitrate=10313 / ratetol=1.0 / qcomp=0.60 / qpmin=10 / qpmax=51 / qpstep=4 / cplxblur=20.0 / qblur=0.5 / ip_ratio=1.40 / pb_ratio=1.30 / aq=1:1.00
Language                         : English

Audio
ID                               : 2
Format                           : AC-3
Format/Info                      : Audio Coding 3
Codec ID                         : A_AC3
Duration                         : 1h 43mn
Bit rate mode                    : Constant
Bit rate                         : 640 Kbps
Channel(s)                       : 6 channels
Channel positions                : Front: L C R, Surround: L R, LFE
Sampling rate                    : 48.0 KHz
Stream size                      : 475 MiB (6%)

Text #1
ID                               : 3
Format                           : UTF-8
Codec ID                         : S_TEXT/UTF8
Codec ID/Info                    : UTF-8 Plain Text
Title                            : ita
Language                         : Italian

Text #2
ID                               : 4
Format                           : UTF-8
Codec ID                         : S_TEXT/UTF8
Codec ID/Info                    : UTF-8 Plain Text
Title                            : dut
Language                         : Dutch

Text #3
ID                               : 5
Format                           : UTF-8
Codec ID                         : S_TEXT/UTF8
Codec ID/Info                    : UTF-8 Plain Text
Title                            : fin
Language                         : Finnish

Text #4
ID                               : 6
Format                           : UTF-8
Codec ID                         : S_TEXT/UTF8
Codec ID/Info                    : UTF-8 Plain Text
Title                            : ger
Language                         : German

Text #5
ID                               : 7
Format                           : UTF-8
Codec ID                         : S_TEXT/UTF8
Codec ID/Info                    : UTF-8 Plain Text
Title                            : por
Language                         : Portuguese

Text #6
ID                               : 8
Format                           : UTF-8
Codec ID                         : S_TEXT/UTF8
Codec ID/Info                    : UTF-8 Plain Text
Title                            : dan
Language                         : Danish

Text #7
ID                               : 9
Format                           : UTF-8
Codec ID                         : S_TEXT/UTF8
Codec ID/Info                    : UTF-8 Plain Text
Title                            : eng
Language                         : English

Text #8
ID                               : 10
Format                           : UTF-8
Codec ID                         : S_TEXT/UTF8
Codec ID/Info                    : UTF-8 Plain Text
Title                            : fre
Language                         : French

Text #9
ID                               : 11
Format                           : UTF-8
Codec ID                         : S_TEXT/UTF8
Codec ID/Info                    : UTF-8 Plain Text
Title                            : nor
Language                         : Norwegian

Text #10
ID                               : 12
Format                           : UTF-8
Codec ID                         : S_TEXT/UTF8
Codec ID/Info                    : UTF-8 Plain Text
Title                            : spa
Language                         : Spanish

Text #11
ID                               : 13
Format                           : UTF-8
Codec ID                         : S_TEXT/UTF8
Codec ID/Info                    : UTF-8 Plain Text
Title                            : swe
Language                         : Swedish


Weblink  :  http://www.moviemeter.nl/film/28431
Weblink  :  http://www.imdb.com/title/tt0397101

*****************************************

Brought to you by 
2Lions Team

meer zien??
Kom dan eens kijken op ons Forum 
                       
http://www.2lions-site.nl  

2Lions the site to be for all your Dutch MOVIES and more

******************************************


DON T HIT AND RUN Niet gelijk afhaken als de FILM binnen is blijf seeden. 

Don`t quit after you finished the download, but keep seeding


There are fake torrents from uploaders who use our team name.
Those are not ours, or members from our team.
We 2Lions-Team are not responsible for the fake posts on our name

Wij 2Lions-Team zijn niet verantwoordelijk voor die zieke FAKE posten die op onze naam worden gedaan

Please check our site !!!
To the fakers Get a Live
 
 
 
 
 
